<svg width="48" height="48" viewBox="0 0 48 48" fill="none" xmlns="http://www.w3.org/2000/svg">
<circle cx="24" cy="24" r="24" fill="#D9D9D9"/>
<path d="M13.4091 31V19.3636H14.8182V24.5455H21.0227V19.3636H22.4318V31H21.0227V25.7955H14.8182V31H13.4091ZM28.8438 31H25.2528V19.3636H29.0028C30.1316 19.3636 31.0975 19.5966 31.9006 20.0625C32.7036 20.5246 33.3191 21.1894 33.7472 22.0568C34.1752 22.9205 34.3892 23.9545 34.3892 25.1591C34.3892 26.3712 34.1733 27.4148 33.7415 28.2898C33.3097 29.161 32.6809 29.8314 31.8551 30.3011C31.0294 30.767 30.0256 31 28.8438 31ZM26.6619 29.75H28.7528C29.715 29.75 30.5123 29.5644 31.1449 29.1932C31.7775 28.822 32.2491 28.2936 32.5597 27.608C32.8703 26.9223 33.0256 26.1061 33.0256 25.1591C33.0256 24.2197 32.8722 23.411 32.5653 22.733C32.2585 22.0511 31.8002 21.5284 31.1903 21.1648C30.5805 20.7973 29.821 20.6136 28.9119 20.6136H26.6619V29.75Z" fill="#DB2D2D"/>
</svg>
